<svg width="192" height="29" viewBox="0 0 192 29" fill="none" xmlns="http://www.w3.org/2000/svg">
<path d="M19.566 3.052L20.97 28H15.822L15.516 17.326C15.492 16.33 15.48 15.442 15.48 14.662C15.492 13.882 15.51 13.15 15.534 12.466C15.558 11.77 15.594 11.074 15.642 10.378C15.702 9.67 15.762 8.902 15.822 8.074L13.014 23.752H8.55L5.526 8.074C5.598 8.866 5.658 9.616 5.706 10.324C5.766 11.02 5.808 11.722 5.832 12.43C5.856 13.138 5.874 13.9 5.886 14.716C5.898 15.52 5.892 16.42 5.868 17.416L5.688 28H0.63L2.034 3.052H8.1L10.872 19.18L13.5 3.052H19.566ZM29.0379 20.098C29.1699 21.142 29.4399 21.988 29.8479 22.636C30.2679 23.272 30.8019 23.74 31.4499 24.04C32.0979 24.328 32.8239 24.472 33.6279 24.472C34.5039 24.472 35.3499 24.328 36.1659 24.04C36.9819 23.752 37.7679 23.368 38.5239 22.888L40.8099 25.984C39.9099 26.752 38.8179 27.382 37.5339 27.874C36.2619 28.366 34.8099 28.612 33.1779 28.612C30.9939 28.612 29.1639 28.18 27.6879 27.316C26.2119 26.44 25.1019 25.24 24.3579 23.716C23.6139 22.192 23.2419 20.44 23.2419 18.46C23.2419 16.576 23.6019 14.866 24.3219 13.33C25.0419 11.782 26.0919 10.552 27.4719 9.64C28.8639 8.716 30.5619 8.254 32.5659 8.254C34.3899 8.254 35.9679 8.644 37.2999 9.424C38.6439 10.204 39.6819 11.326 40.4139 12.79C41.1579 14.254 41.5299 16.012 41.5299 18.064C41.5299 18.388 41.5179 18.736 41.4939 19.108C41.4819 19.48 41.4579 19.81 41.4219 20.098H29.0379ZM32.5659 12.07C31.5459 12.07 30.7239 12.436 30.0999 13.168C29.4759 13.9 29.0979 15.07 28.9659 16.678H35.9859C35.9739 15.286 35.7039 14.17 35.1759 13.33C34.6479 12.49 33.7779 12.07 32.5659 12.07ZM56.5639 0.693999L62.2519 1.288V28H57.2119L56.9239 25.894C56.3959 26.638 55.6939 27.28 54.8179 27.82C53.9419 28.348 52.8799 28.612 51.6319 28.612C50.0479 28.612 48.7339 28.186 47.6899 27.334C46.6579 26.482 45.8839 25.294 45.3679 23.77C44.8639 22.234 44.6119 20.44 44.6119 18.388C44.6119 16.42 44.9179 14.674 45.5299 13.15C46.1419 11.626 47.0179 10.432 48.1579 9.568C49.2979 8.692 50.6539 8.254 52.2259 8.254C53.0779 8.254 53.8699 8.404 54.6019 8.704C55.3339 9.004 55.9879 9.442 56.5639 10.018V0.693999ZM53.7559 12.412C52.7719 12.412 51.9799 12.88 51.3799 13.816C50.7799 14.74 50.4799 16.276 50.4799 18.424C50.4799 19.996 50.6059 21.22 50.8579 22.096C51.1099 22.96 51.4579 23.566 51.9019 23.914C52.3459 24.262 52.8559 24.436 53.4319 24.436C54.0679 24.436 54.6439 24.238 55.1599 23.842C55.6879 23.446 56.1559 22.906 56.5639 22.222V13.978C56.1679 13.486 55.7479 13.102 55.3039 12.826C54.8599 12.55 54.3439 12.412 53.7559 12.412ZM80.3638 21.682H70.5538L68.5738 28H65.4958L73.5598 3.214H77.5558L85.6198 28H82.3438L80.3638 21.682ZM71.3638 19.09H79.5538L75.4858 5.842L71.3638 19.09ZM96.4058 25.912C97.8578 25.912 99.0038 25.642 99.8438 25.102C100.696 24.55 101.122 23.818 101.122 22.906C101.122 22.33 101.014 21.832 100.798 21.412C100.594 20.992 100.168 20.614 99.5198 20.278C98.8718 19.942 97.8758 19.606 96.5318 19.27C95.2238 18.946 94.0838 18.574 93.1118 18.154C92.1518 17.722 91.4018 17.164 90.8618 16.48C90.3338 15.796 90.0698 14.908 90.0698 13.816C90.0698 12.748 90.3698 11.83 90.9697 11.062C91.5818 10.282 92.4278 9.688 93.5078 9.28C94.5878 8.86 95.8418 8.65 97.2698 8.65C98.7938 8.65 100.12 8.854 101.248 9.262C102.388 9.658 103.354 10.15 104.146 10.738L102.814 12.79C102.094 12.298 101.302 11.896 100.438 11.584C99.5738 11.26 98.5298 11.098 97.3058 11.098C95.8178 11.098 94.7618 11.332 94.1378 11.8C93.5138 12.256 93.2018 12.85 93.2018 13.582C93.2018 14.134 93.3518 14.596 93.6518 14.968C93.9638 15.328 94.4858 15.658 95.2178 15.958C95.9498 16.246 96.9578 16.564 98.2418 16.912C99.4778 17.236 100.552 17.626 101.464 18.082C102.388 18.538 103.108 19.138 103.624 19.882C104.14 20.626 104.398 21.586 104.398 22.762C104.398 24.106 104.014 25.198 103.246 26.038C102.478 26.866 101.482 27.472 100.258 27.856C99.0458 28.228 97.7618 28.414 96.4058 28.414C94.6898 28.414 93.2258 28.168 92.0138 27.676C90.8138 27.172 89.8058 26.566 88.9897 25.858L90.7178 23.86C91.4618 24.472 92.3138 24.97 93.2738 25.354C94.2458 25.726 95.2898 25.912 96.4058 25.912ZM117.992 25.912C119.444 25.912 120.59 25.642 121.43 25.102C122.282 24.55 122.708 23.818 122.708 22.906C122.708 22.33 122.6 21.832 122.384 21.412C122.18 20.992 121.754 20.614 121.106 20.278C120.458 19.942 119.462 19.606 118.118 19.27C116.81 18.946 115.67 18.574 114.698 18.154C113.738 17.722 112.988 17.164 112.448 16.48C111.92 15.796 111.656 14.908 111.656 13.816C111.656 12.748 111.956 11.83 112.556 11.062C113.168 10.282 114.014 9.688 115.094 9.28C116.174 8.86 117.428 8.65 118.856 8.65C120.38 8.65 121.706 8.854 122.834 9.262C123.974 9.658 124.94 10.15 125.732 10.738L124.4 12.79C123.68 12.298 122.888 11.896 122.024 11.584C121.16 11.26 120.116 11.098 118.892 11.098C117.404 11.098 116.348 11.332 115.724 11.8C115.1 12.256 114.788 12.85 114.788 13.582C114.788 14.134 114.938 14.596 115.238 14.968C115.55 15.328 116.072 15.658 116.804 15.958C117.536 16.246 118.544 16.564 119.828 16.912C121.064 17.236 122.138 17.626 123.05 18.082C123.974 18.538 124.694 19.138 125.21 19.882C125.726 20.626 125.984 21.586 125.984 22.762C125.984 24.106 125.6 25.198 124.832 26.038C124.064 26.866 123.068 27.472 121.844 27.856C120.632 28.228 119.348 28.414 117.992 28.414C116.276 28.414 114.812 28.168 113.6 27.676C112.4 27.172 111.392 26.566 110.576 25.858L112.304 23.86C113.048 24.472 113.9 24.97 114.86 25.354C115.832 25.726 116.876 25.912 117.992 25.912ZM142.728 9.046V25.606H148.074V28H133.854V25.606H139.704V11.44H134.034V9.046H142.728ZM140.316 0.171998C140.988 0.171998 141.522 0.375998 141.918 0.783998C142.326 1.192 142.53 1.69 142.53 2.278C142.53 2.89 142.326 3.406 141.918 3.826C141.522 4.234 140.988 4.438 140.316 4.438C139.68 4.438 139.158 4.234 138.75 3.826C138.342 3.406 138.138 2.89 138.138 2.278C138.138 1.69 138.342 1.192 138.75 0.783998C139.158 0.375998 139.68 0.171998 140.316 0.171998ZM161.164 25.912C162.616 25.912 163.762 25.642 164.602 25.102C165.454 24.55 165.88 23.818 165.88 22.906C165.88 22.33 165.772 21.832 165.556 21.412C165.352 20.992 164.926 20.614 164.278 20.278C163.63 19.942 162.634 19.606 161.29 19.27C159.982 18.946 158.842 18.574 157.87 18.154C156.91 17.722 156.16 17.164 155.62 16.48C155.092 15.796 154.828 14.908 154.828 13.816C154.828 12.748 155.128 11.83 155.728 11.062C156.34 10.282 157.186 9.688 158.266 9.28C159.346 8.86 160.6 8.65 162.028 8.65C163.552 8.65 164.878 8.854 166.006 9.262C167.146 9.658 168.112 10.15 168.904 10.738L167.572 12.79C166.852 12.298 166.06 11.896 165.196 11.584C164.332 11.26 163.288 11.098 162.064 11.098C160.576 11.098 159.52 11.332 158.896 11.8C158.272 12.256 157.96 12.85 157.96 13.582C157.96 14.134 158.11 14.596 158.41 14.968C158.722 15.328 159.244 15.658 159.976 15.958C160.708 16.246 161.716 16.564 163 16.912C164.236 17.236 165.31 17.626 166.222 18.082C167.146 18.538 167.866 19.138 168.382 19.882C168.898 20.626 169.156 21.586 169.156 22.762C169.156 24.106 168.772 25.198 168.004 26.038C167.236 26.866 166.24 27.472 165.016 27.856C163.804 28.228 162.52 28.414 161.164 28.414C159.448 28.414 157.984 28.168 156.772 27.676C155.572 27.172 154.564 26.566 153.748 25.858L155.476 23.86C156.22 24.472 157.072 24.97 158.032 25.354C159.004 25.726 160.048 25.912 161.164 25.912ZM191.354 27.046C190.706 27.478 189.92 27.814 188.996 28.054C188.072 28.294 187.166 28.414 186.278 28.414C184.238 28.414 182.666 27.88 181.562 26.812C180.458 25.744 179.906 24.37 179.906 22.69V11.386H175.55V9.046H179.906V4.744L182.93 4.384V9.046H189.482L189.122 11.386H182.93V22.654C182.93 23.71 183.206 24.514 183.758 25.066C184.322 25.618 185.252 25.894 186.548 25.894C187.256 25.894 187.91 25.81 188.51 25.642C189.11 25.474 189.668 25.258 190.184 24.994L191.354 27.046Z" fill="white"/>
</svg>
